<svg fill="#1A1423" xmlns="http://www.w3.org/2000/svg" xmlns:xlink="http://www.w3.org/1999/xlink" viewBox="0 0 164 164" version="1.1" x="0px" y="0px"><title>slr</title><desc>Created with Sketch.</desc><g stroke="none" stroke-width="1" fill="none" fill-rule="evenodd"><g stroke="#1A1423"><path d="M96.6906568,121.901235 L137.800781,121.901235 C140.664145,121.901235 143,119.574141 143,116.703525 L143,63.0865987 C143,60.2239537 140.67223,57.8888889 137.800781,57.8888889 L27.1992188,57.8888889 C24.3358554,57.8888889 22,60.2159828 22,63.0865987 L22,116.703525 C22,119.56617 24.3277695,121.901235 27.1992188,121.901235 L74.5679639,121.901235 C77.9940441,123.255994 81.7253112,124 85.6293103,124 C89.5333095,124 93.2645766,123.255994 96.6906568,121.901235 Z" stroke-width="3.12"></path><path d="M101.275177,67.3333333 L132.578697,67.3333333 C138.334224,67.3333333 143,72.0357948 143,77.8251403 M22,77.8251403 L22,77.8251403 C22,72.0306753 26.6620144,67.3333333 32.4316467,67.3333333 L69.9392137,67.3333333" stroke-width="3.12"></path><ellipse stroke-width="3.12" cx="85.6293103" cy="93.5679012" rx="30.25" ry="30.4320988"></ellipse><ellipse stroke-width="3.12" cx="85.6293103" cy="93.5679012" rx="21.9051724" ry="22.037037"></ellipse><ellipse stroke-width="1.04" cx="85.6302078" cy="93.5675889" rx="16.4325808" ry="16.5315015"></ellipse><path d="M71.5877176,39.922788 C71.8604013,39.4131462 72.5460443,39 73.1155554,39 L99.165866,39 C99.7369838,39 100.419042,39.4082471 100.69638,39.925066 L105.007793,47.9593819 L107.534483,57.8888889 L64.7672414,57.8888889 L67.2995452,47.9373186 L71.5877176,39.922788 Z" stroke-width="3.12"></path><path d="M68.4181034,47.3950617 L103.883621,47.3950617" stroke-width="2.08" stroke-linecap="square"></path><path d="M121.094828,50.5400934 C121.094828,49.9622565 121.558624,49.4938272 122.13884,49.4938272 L136.74047,49.4938272 C137.317062,49.4938272 137.784483,49.9692356 137.784483,50.5400934 L137.784483,57.8888889 L121.094828,57.8888889 L121.094828,50.5400934 Z" stroke-width="3.12"></path><path d="M29.3017241,53.6785966 C29.3017241,53.1060865 29.7710672,52.6419753 30.340261,52.6419753 L42.8666355,52.6419753 C43.4402036,52.6419753 43.9051724,53.1076039 43.9051724,53.6785966 L43.9051724,57.8888889 L29.3017241,57.8888889 L29.3017241,53.6785966 Z" stroke-width="3.12"></path><path d="M43.9051724,50.5400934 C43.9051724,49.9622565 44.3745155,49.4938272 44.9437093,49.4938272 L57.4700838,49.4938272 C58.0436519,49.4938272 58.5086207,49.9692356 58.5086207,50.5400934 L58.5086207,57.8888889 L43.9051724,57.8888889 L43.9051724,50.5400934 Z" stroke-width="3.12"></path><path d="M30.3448276,74.154321 L30.3448276,116.12963" stroke-width="2.08" stroke-linecap="round"></path><path d="M36.6034483,79.4012346 L36.6034483,109.833333" stroke-width="2.08" stroke-linecap="round"></path><path d="M42.3405172,85.6975309 L42.3405172,103.537037" stroke-width="1.04" stroke-linecap="round"></path><path d="M121.616379,53.6984615 L137.262931,53.6984615" stroke-width="0.78" stroke-linecap="square"></path></g></g></svg>