<svg fill="#1A1423" xmlns="http://www.w3.org/2000/svg" xmlns:xlink="http://www.w3.org/1999/xlink" version="1.1" x="0px" y="0px" viewBox="0 0 100 100" enable-background="new 0 0 100 100" xml:space="preserve"><path d="M60.678,44.536c0-0.016,0.012-0.028,0.009-0.045L53.491,9.335c-0.003-0.014-0.017-0.02-0.021-0.032s0-0.027-0.008-0.039  c-0.009-0.013-0.024-0.014-0.034-0.023c-0.018-0.017-0.034-0.028-0.057-0.038c-0.026-0.012-0.049-0.016-0.078-0.016  c-0.014,0-0.023-0.01-0.037-0.008c-0.015,0.003-0.021,0.017-0.033,0.022c-0.013,0.005-0.027,0-0.038,0.008l-0.099,0.065  L7.691,35.487c-0.014,0.008-0.017,0.025-0.028,0.036c-0.02,0.019-0.034,0.034-0.045,0.059c-0.011,0.024-0.013,0.046-0.014,0.073  c0,0.016-0.012,0.028-0.009,0.045l7.182,35.028l0.011,0.099c0.002,0.016,0.015,0.025,0.021,0.039  c0.004,0.013-0.002,0.026,0.005,0.038c0.004,0.008,0.016,0.005,0.021,0.012c0.037,0.051,0.087,0.089,0.152,0.089h0  c0.008,0,0.015-0.001,0.022-0.001c0.007-0.001,0.011-0.009,0.018-0.01c0.02-0.005,0.041-0.006,0.06-0.017l45.504-26.273  c0.002-0.001,0.002-0.004,0.004-0.005c0.017-0.011,0.026-0.026,0.038-0.041c0.012-0.013,0.021-0.021,0.029-0.036  c0.004-0.009,0.014-0.013,0.017-0.022c0.001-0.003-0.001-0.006-0.001-0.009C60.684,44.572,60.678,44.556,60.678,44.536z"></path><path d="M78.409,61.004c-0.004-0.009,0.001-0.019-0.004-0.027c-0.009-0.017-0.028-0.019-0.041-0.031  c-0.013-0.012-0.015-0.031-0.031-0.04L62.7,51.882c-0.009-0.005-0.018,0-0.026-0.004c-0.018-0.007-0.031-0.011-0.049-0.014  c-0.01-0.001-0.016-0.01-0.025-0.01s-0.016,0.009-0.023,0.01c-0.02,0.003-0.033,0.007-0.051,0.014  c-0.008,0.004-0.018-0.001-0.025,0.004L22.551,74.944c-0.018,0.011-0.022,0.031-0.035,0.046c-0.013,0.013-0.032,0.017-0.041,0.033  c-0.004,0.007,0,0.015-0.002,0.022c-0.01,0.025-0.008,0.048-0.007,0.075c0,0.026-0.001,0.048,0.01,0.072  c0.003,0.008-0.001,0.016,0.003,0.023c0.006,0.012,0.022,0.008,0.031,0.018c0.016,0.021,0.024,0.046,0.048,0.06l0.352,0.188  c0,0,0.001,0,0.001,0l15.274,8.832c0.032,0.019,0.066,0.027,0.1,0.027s0.068-0.009,0.1-0.027L77.992,61.45h0.002l0.34-0.199  c0.021-0.013,0.027-0.037,0.042-0.056c0.009-0.01,0.024-0.006,0.03-0.018c0.005-0.009,0-0.019,0.004-0.027  c0.01-0.024,0.01-0.046,0.01-0.072C78.42,61.051,78.42,61.028,78.409,61.004z M72.088,58.448c0.002-0.001,0.003,0,0.004-0.001  L72.33,58.3l1.682,0.973l-4.814,2.771l-1.676-0.966l0.043-0.025l0,0l0.141-0.082v-0.001c0.002-0.001,0.002-0.001,0.004-0.002l0,0  l0.334-0.207l4.043-2.309C72.087,58.45,72.087,58.449,72.088,58.448z M70.412,61.806c-0.006,0.016-0.008,0.027-0.01,0.044  c-0.001,0.01-0.01,0.016-0.01,0.025v0.064l-0.058-0.03c-0.008-0.004-0.017,0.001-0.024-0.002c-0.02-0.008-0.037-0.008-0.06-0.009  L70.412,61.806z M66.771,63.449l-1.689-0.969l0.059-0.035v-0.001l0.334-0.184V62.26c0.002-0.001,0.002-0.001,0.003-0.001  l1.296-0.751l0.25,0.142l1.434,0.834L66.771,63.449z M67.982,63.217c-0.004,0.014-0.004,0.025-0.006,0.039  c-0.001,0.01-0.01,0.016-0.01,0.025v0.064l-0.058-0.03c-0.007-0.004-0.015,0.001-0.022-0.002c-0.02-0.008-0.035-0.008-0.056-0.01  L67.982,63.217z M64.334,64.855l-1.685-0.971l0.056-0.035l0.332-0.183v-0.001c0.002-0.001,0.002-0.001,0.003-0.001l1.296-0.751  l0.25,0.142l1.434,0.834L64.334,64.855z M65.547,64.622c-0.005,0.015-0.006,0.026-0.008,0.041c-0.002,0.01-0.01,0.015-0.01,0.024  v0.045l-0.049-0.029c-0.01-0.005-0.021,0-0.03-0.004c-0.007-0.003-0.01-0.011-0.017-0.013L65.547,64.622z M61.908,66.262  l-1.689-0.969l0.059-0.035c0,0,0-0.001,0.001-0.002c0.001,0,0.001,0,0.001,0l0.34-0.211l1.291-0.728l0.248,0.133l1.438,0.845  L61.908,66.262z M63.102,66.069c-0.002,0.009-0.01,0.015-0.01,0.024v0.045l-0.049-0.029c-0.01-0.005-0.02,0-0.029-0.004  c-0.004-0.002-0.007-0.008-0.012-0.009l0.098-0.056C63.097,66.05,63.104,66.06,63.102,66.069z M44.882,76.093l-1.678-0.977  l0.044-0.025c0,0,0,0,0-0.001c0,0,0.001,0,0.001,0l0.352-0.211c0,0,0-0.001,0-0.001l1.282-0.728l0.255,0.136h0l1.43,0.831  L44.882,76.093z M46.086,75.889c-0.001,0.01-0.01,0.016-0.01,0.025v0.051l-0.034-0.021c-0.009-0.006-0.021-0.001-0.03-0.005  c-0.013-0.006-0.023-0.013-0.038-0.016l0.112-0.064C46.083,75.868,46.087,75.878,46.086,75.889z M42.456,77.5l-1.684-0.975  l0.048-0.027c0,0,0-0.001,0.001-0.001c0.001-0.001,0.002,0,0.003-0.001l0.352-0.211c0,0,0,0,0,0l1.278-0.748l0.25,0.15  c0,0,0.001,0,0.002,0.001c0,0,0,0,0,0l1.437,0.835L42.456,77.5z M43.649,77.294c-0.001,0.01-0.011,0.017-0.011,0.026v0.051  l-0.034-0.021c-0.009-0.006-0.02-0.001-0.029-0.005c-0.009-0.004-0.014-0.016-0.023-0.018l0.094-0.055  C43.645,77.279,43.65,77.287,43.649,77.294z M40.019,78.904l-1.67-0.981l0.032-0.018c0,0,0-0.001,0.001-0.002  c0.002,0,0.004,0,0.005-0.001l0.352-0.211c0,0,0,0,0,0l1.278-0.748l0.25,0.15c0,0,0.001,0,0.002,0.001c0,0,0,0.001,0.001,0.001  l1.435,0.824L40.019,78.904z M41.23,78.66c-0.005,0.015-0.005,0.026-0.007,0.041c-0.001,0.01-0.01,0.016-0.01,0.025v0.051  l-0.034-0.021c-0.009-0.006-0.021-0.001-0.03-0.005c-0.017-0.008-0.03-0.012-0.048-0.015L41.23,78.66z M37.841,78.5  c0,0,0.001,0,0.002,0.001c0,0,0,0.001,0.001,0.001l1.434,0.823l-1.686,0.976l-1.687-0.977l1.685-0.975L37.841,78.5z M37.637,77.925  l0.12-0.069c-0.004,0.012-0.001,0.023-0.002,0.035c-0.001,0.011-0.011,0.017-0.011,0.027v0.057l-0.048-0.029  c-0.009-0.005-0.02,0-0.029-0.004C37.655,77.937,37.648,77.928,37.637,77.925z M34.815,76.292l-1.675-0.979l0.035-0.019  c0.001-0.001,0.001-0.002,0.002-0.003c0.001-0.001,0.003,0,0.005-0.001l0.34-0.199c0,0,0-0.001,0-0.001l1.289-0.747l0.238,0.147  c0.002,0.001,0.004,0.001,0.005,0.002c0.001,0,0.001,0.001,0.002,0.002l1.443,0.813L34.815,76.292z M36.362,75.852  c-0.004,0.012,0.001,0.022-0.001,0.034c-0.001,0.011-0.012,0.018-0.012,0.028v0.051l-0.034-0.021  c-0.009-0.006-0.02-0.001-0.029-0.005c-0.016-0.007-0.028-0.014-0.045-0.017L36.362,75.852z M30.995,75.684l-1.686-0.976  l1.434-0.823c0,0,0-0.001,0.001-0.001l0.251-0.143l0.251,0.143c0,0,0,0.001,0.001,0.001l1.434,0.823L30.995,75.684z M32.541,75.276  c-0.001,0.011-0.012,0.018-0.012,0.028v0.068l-0.048-0.029c-0.009-0.005-0.02,0-0.03-0.004c-0.013-0.006-0.023-0.014-0.037-0.017  l0.125-0.071C32.536,75.26,32.542,75.268,32.541,75.276z M31.745,73.303l1.435-0.824c0,0,0-0.001,0-0.001s0,0,0.001,0l0.241-0.142  l0.249,0.142c0,0,0,0.001,0.001,0.001l1.435,0.824l-1.686,0.984L31.745,73.303z M64.229,57.639c0.004,0.002,0.008,0.001,0.012,0.003  c0.002,0.002,0.002,0.005,0.005,0.006l0.132,0.066l1.295,0.752l-1.678,0.985l-1.675-0.979l0.035-0.019  c0.002-0.001,0.002-0.004,0.004-0.005c0.003-0.001,0.005-0.001,0.007-0.002l0.34-0.211l1.285-0.745L64.229,57.639z M64.054,57.07  l0.229-0.132c-0.002,0.008,0.005,0.017,0.003,0.024c-0.001,0.01-0.01,0.016-0.01,0.025v0.208L64.1,57.088  c-0.009-0.006-0.02-0.001-0.029-0.005C64.064,57.08,64.061,57.072,64.054,57.07z M66.259,58.439  c-0.003-0.018-0.007-0.031-0.014-0.048c-0.003-0.01,0.001-0.02-0.004-0.028c-0.005-0.008-0.015-0.009-0.021-0.016  c-0.012-0.015-0.021-0.023-0.035-0.034c-0.008-0.006-0.008-0.017-0.016-0.021l-1.494-0.868v-0.049v-0.041l1.83,1.057l-0.236,0.13  v-0.056C66.27,58.455,66.26,58.449,66.259,58.439z M67.652,60.443c-0.002-0.018-0.006-0.031-0.012-0.048  c-0.004-0.009,0.001-0.019-0.004-0.027s-0.016-0.009-0.021-0.017c-0.012-0.014-0.021-0.023-0.035-0.034  c-0.008-0.007-0.008-0.018-0.018-0.022l-1.492-0.856v-0.048v-0.053l1.674,0.965v0.172l-0.08,0.05v-0.056  C67.664,60.459,67.654,60.453,67.652,60.443z M65.377,61.445l-1.674-0.969l0.034-0.019c0.001-0.001,0.001-0.002,0.003-0.003  s0.004-0.001,0.006-0.002l0.352-0.211c0,0,0-0.001,0.001-0.001l1.28-0.737l0.25,0.142l0.141,0.082l0,0v0.001l1.293,0.741  L65.377,61.445z M66.947,60.998c-0.001,0.003,0,0.005,0,0.008c-0.008,0.017-0.012,0.03-0.014,0.048  c-0.002,0.009-0.01,0.015-0.01,0.024v0.056l-0.053-0.03c-0.008-0.005-0.018,0-0.025-0.003c-0.019-0.008-0.033-0.011-0.053-0.013  L66.947,60.998z M62.939,62.851l-1.677-0.977l0.044-0.025v-0.001l0.35-0.197v-0.001c0,0,0,0,0.001,0l1.284-0.739l0.25,0.142  c0.001,0.001,0.001,0.001,0.001,0.001l1.442,0.823L62.939,62.851z M64.51,62.41c0,0.001,0,0.002,0,0.002  c-0.008,0.018-0.012,0.03-0.014,0.049c-0.002,0.009-0.01,0.015-0.01,0.023v0.056l-0.053-0.03c-0.009-0.005-0.018,0-0.027-0.003  c-0.014-0.007-0.025-0.011-0.041-0.014L64.51,62.41z M60.515,64.257l-1.678-0.977l0.044-0.025v-0.001l0.35-0.197v-0.001  c0,0,0,0,0.001,0l1.286-0.741l0.254,0.136l0,0l1.43,0.831L60.515,64.257z M62.084,63.811c-0.001,0.003,0,0.007-0.001,0.011  c-0.007,0.017-0.012,0.029-0.014,0.047c-0.001,0.009-0.009,0.014-0.009,0.022v0.053l-0.058-0.03  c-0.007-0.004-0.015,0.001-0.022-0.002c-0.018-0.008-0.033-0.008-0.053-0.01L62.084,63.811z M58.088,65.664L56.4,64.687l0.043-0.025  c0,0,0,0,0-0.001c0.001,0,0.002,0,0.002,0l0.352-0.211c0,0,0-0.001,0.001-0.001l1.292-0.729l0.256,0.137l0,0l1.43,0.831  L58.088,65.664z M59.646,65.224C59.646,65.225,59.646,65.225,59.646,65.224c-0.008,0.019-0.012,0.031-0.014,0.05  c-0.002,0.009-0.01,0.015-0.01,0.023v0.053l-0.058-0.03c-0.007-0.004-0.016,0.001-0.023-0.002c-0.013-0.005-0.023-0.009-0.038-0.012  L59.646,65.224z M55.662,67.069l-1.693-0.975l0.047-0.026v-0.001c0.002-0.001,0.003,0,0.004-0.001l0.352-0.211  c0,0,0-0.001,0.001-0.001l1.286-0.746l0.238,0.147c0.002,0.001,0.003,0,0.004,0.001c0,0,0,0.002,0.002,0.002l1.437,0.835  L55.662,67.069z M57.221,66.625c-0.001,0.003,0,0.006-0.001,0.009c-0.007,0.017-0.012,0.029-0.014,0.047  c-0.001,0.009-0.009,0.014-0.009,0.022v0.044l-0.053-0.03c-0.008-0.005-0.018,0-0.025-0.003c-0.009-0.004-0.014-0.015-0.021-0.017  L57.221,66.625z M53.225,68.476l-1.681-0.982l0.032-0.018c0,0,0-0.001,0-0.002c0.002,0,0.004,0,0.006-0.001l0.352-0.211  c0,0,0-0.001,0.001-0.001l1.286-0.746l0.238,0.147c0.002,0.001,0.004,0,0.005,0.001s0.001,0.002,0.002,0.003l1.444,0.824  L53.225,68.476z M54.783,68.028c-0.001,0.003,0,0.006,0,0.009c-0.008,0.018-0.012,0.03-0.014,0.049  c-0.002,0.009-0.01,0.015-0.01,0.023v0.044l-0.053-0.03c-0.009-0.005-0.018,0-0.026-0.003c-0.011-0.005-0.017-0.014-0.026-0.016  L54.783,68.028z M50.799,69.87l-1.679-0.972l0.03-0.017c0,0,0-0.001,0.001-0.002c0.002,0,0.004,0,0.005-0.001l0.352-0.211  c0,0,0-0.001,0.001-0.001l1.287-0.746l0.238,0.147c0.002,0.001,0.003,0,0.004,0.001c0.002,0.001,0.002,0.002,0.002,0.003  l1.435,0.823L50.799,69.87z M52.345,69.465c-0.001,0.011-0.011,0.017-0.011,0.027v0.067l-0.053-0.03  c-0.008-0.005-0.018,0-0.025-0.003c-0.017-0.007-0.029-0.011-0.047-0.014l0.135-0.078C52.34,69.444,52.346,69.455,52.345,69.465z   M48.362,71.277L46.673,70.3l0.043-0.025c0,0,0-0.001,0-0.001l0.349-0.197c0,0,0-0.001,0-0.001s0,0,0.001,0l1.292-0.749l0.251,0.15  c0,0,0.001,0,0.002,0.001c0,0,0,0.001,0.001,0.001l1.434,0.823L48.362,71.277z M49.908,70.87c-0.001,0.011-0.012,0.018-0.012,0.028  v0.067l-0.053-0.03c-0.008-0.005-0.018,0-0.026-0.003c-0.014-0.006-0.024-0.012-0.039-0.014l0.126-0.073  C49.903,70.854,49.909,70.861,49.908,70.87z M45.936,72.683l-1.694-0.975l0.047-0.026l0.352-0.199c0,0,0-0.001,0-0.001s0,0,0.001,0  l1.291-0.748l0.238,0.147c0.001,0.001,0.002,0,0.004,0.001c0.001,0.001,0.001,0.002,0.002,0.003l1.434,0.823L45.936,72.683z   M47.484,72.244c-0.004,0.013-0.002,0.023-0.004,0.036c-0.001,0.009-0.01,0.015-0.01,0.024v0.064l-0.057-0.03  c-0.007-0.004-0.016,0.001-0.023-0.002c-0.016-0.007-0.029-0.009-0.045-0.011L47.484,72.244z M43.499,74.09l-1.688-0.978  l0.043-0.025c0,0,0,0,0-0.001c0,0,0.001,0,0.001,0l0.352-0.211c0,0,0,0,0-0.001l1.29-0.736l0.24,0.141c0,0,0.001,0,0.002,0  l1.446,0.835L43.499,74.09z M45.043,73.685c-0.001,0.01-0.011,0.017-0.011,0.026v0.064l-0.057-0.03  c-0.007-0.004-0.015,0.001-0.022-0.002c-0.013-0.006-0.023-0.01-0.037-0.013l0.124-0.071C45.038,73.667,45.044,73.677,45.043,73.685  z M41.072,75.495l-1.684-0.974l0.048-0.027c0.001-0.001,0.001-0.002,0.002-0.003c0.001,0,0.003,0,0.005-0.001l0.34-0.211  l1.285-0.745l0.238,0.147c0.001,0.001,0.002,0,0.003,0.001c0,0,0,0.002,0.001,0.002l1.437,0.835L41.072,75.495z M42.621,75.057  c-0.004,0.013-0.002,0.023-0.004,0.036c-0.001,0.009-0.01,0.015-0.01,0.024v0.045l-0.048-0.029c-0.009-0.005-0.02,0-0.03-0.004  c-0.005-0.003-0.008-0.009-0.013-0.011L42.621,75.057z M39.917,71.681C39.917,71.681,39.917,71.681,39.917,71.681l1.437,0.834  l-1.675,0.966l-1.69-0.969l0.059-0.035c0,0,0,0,0,0l0.337-0.198l1.292-0.738L39.917,71.681z M39.697,71.12l0.145-0.084  c0,0.001,0,0.001,0,0.001c-0.007,0.018-0.012,0.03-0.014,0.049c-0.001,0.009-0.01,0.015-0.01,0.023v0.049l-0.039-0.022  c-0.009-0.005-0.019,0-0.028-0.004C39.733,71.124,39.717,71.122,39.697,71.12z M42.355,70.274l1.435,0.834l-1.686,0.966l-1.69-0.969  l0.056-0.033l0.346-0.185c0.001-0.001,0.001-0.002,0.002-0.003c0.001-0.001,0.003,0,0.005-0.001l1.284-0.751L42.355,70.274z   M42.14,69.711l0.139-0.081c0,0.001,0,0.001,0,0.001c-0.007,0.018-0.012,0.03-0.014,0.049c-0.001,0.009-0.01,0.015-0.01,0.023v0.056  l-0.053-0.03c-0.009-0.005-0.019,0-0.027-0.003C42.163,69.72,42.153,69.713,42.14,69.711z M44.776,68.877  c0.001,0.001,0.002,0,0.004,0.001c0.001,0.001,0.001,0.002,0.002,0.003l1.433,0.823l-1.672,0.964l-1.69-0.969l0.059-0.035  c0,0,0-0.001,0-0.001l0.333-0.184c0,0,0-0.001,0.001-0.001c0.001-0.001,0.002-0.001,0.002-0.001l1.291-0.748L44.776,68.877z   M44.561,68.308l0.14-0.081c-0.005,0.015-0.005,0.026-0.007,0.042c-0.001,0.011-0.012,0.018-0.012,0.028v0.051l-0.034-0.021  c-0.009-0.006-0.021-0.001-0.03-0.005C44.597,68.312,44.582,68.31,44.561,68.308z M47.216,67.473c0,0,0.001,0,0.002,0.001  c0,0,0,0.001,0.001,0.001l1.432,0.822l-1.684,0.965l-1.672-0.959l0.032-0.017c0.001-0.001,0.001-0.002,0.002-0.003  c0.002-0.001,0.004-0.001,0.006-0.002l0.352-0.211c0,0,0,0,0,0l1.278-0.748L47.216,67.473z M47.002,66.898l0.135-0.078  c-0.005,0.015-0.005,0.026-0.007,0.042c-0.001,0.011-0.012,0.018-0.012,0.028v0.057l-0.048-0.029c-0.009-0.005-0.02,0-0.029-0.004  C47.027,66.908,47.017,66.901,47.002,66.898z M49.639,66.064c0.001,0.001,0.002,0,0.004,0.001c0.001,0.001,0.001,0.002,0.002,0.003  l1.435,0.824l-1.676,0.984l-1.675-0.979l0.035-0.019c0.002-0.001,0.002-0.004,0.004-0.005c0.002-0.001,0.005-0.001,0.007-0.002  l0.34-0.211l1.285-0.745L49.639,66.064z M49.436,65.492l0.133-0.077c-0.001,0.003,0,0.005-0.001,0.008  c-0.007,0.017-0.01,0.029-0.013,0.047c-0.001,0.01-0.011,0.017-0.011,0.026v0.039l-0.034-0.021c-0.009-0.006-0.02-0.001-0.029-0.005  C49.465,65.502,49.453,65.495,49.436,65.492z M52.079,64.66c0.001,0,0.001,0,0.002,0.001c0.001,0,0.001,0,0.001,0l1.436,0.835  l-1.688,0.977l-1.684-0.975l0.048-0.027c0,0,0-0.001,0.001-0.001c0.001-0.001,0.002,0,0.003-0.001l0.352-0.211c0,0,0,0,0,0  l1.278-0.748L52.079,64.66z M51.891,64.092l0.102-0.059c-0.004,0.011,0.002,0.021,0,0.03c-0.001,0.01-0.01,0.017-0.01,0.026v0.045  l-0.049-0.029c-0.01-0.005-0.02-0.001-0.03-0.004C51.898,64.1,51.896,64.093,51.891,64.092z M54.507,63.255  C54.508,63.255,54.508,63.255,54.507,63.255l1.438,0.835l-1.677,0.976l-1.684-0.974l0.049-0.027c0-0.001,0-0.002,0.002-0.003  c0.001,0,0.003,0,0.004-0.001l0.334-0.207l1.294-0.739L54.507,63.255z M54.306,62.691l0.112-0.064c-0.004,0.011,0.002,0.021,0,0.03  c-0.001,0.01-0.01,0.017-0.01,0.026v0.049l-0.039-0.022c-0.008-0.005-0.018,0-0.027-0.004  C54.329,62.701,54.319,62.694,54.306,62.691z M56.945,61.849l1.436,0.835l-1.688,0.977l-1.684-0.975l0.049-0.027v-0.001  c0.002-0.001,0.003,0,0.004-0.001l0.352-0.211c0,0,0-0.001,0.001-0.001l1.28-0.737L56.945,61.849z M56.746,61.284l0.109-0.063  c-0.004,0.011,0.002,0.021,0,0.03c-0.001,0.01-0.01,0.017-0.01,0.026v0.056l-0.053-0.03c-0.009-0.005-0.018,0-0.026-0.003  C56.759,61.296,56.754,61.286,56.746,61.284z M59.365,60.451c0.002,0.001,0.003,0,0.004,0.001c0.002,0.001,0.002,0.002,0.002,0.003  l1.435,0.823l-1.675,0.975l-1.684-0.974l0.049-0.027l0,0c0-0.001,0.002-0.001,0.002-0.001l0.34-0.199v-0.001l1.289-0.747  L59.365,60.451z M59.17,59.878l0.11-0.062c-0.003,0.009,0.004,0.018,0.003,0.027c-0.002,0.011-0.012,0.018-0.012,0.028v0.051  L59.236,59.9c-0.009-0.006-0.02-0.001-0.029-0.005C59.193,59.89,59.185,59.881,59.17,59.878z M60.68,61.814  c-0.004,0.013-0.002,0.023-0.004,0.036c-0.002,0.009-0.01,0.015-0.01,0.024v0.064l-0.058-0.03c-0.008-0.004-0.017,0.001-0.024-0.002  c-0.016-0.006-0.027-0.009-0.044-0.011L60.68,61.814z M58.258,63.217c-0.006,0.014-0.006,0.025-0.008,0.04  c-0.002,0.009-0.01,0.015-0.01,0.024v0.064l-0.058-0.03c-0.007-0.004-0.015,0.001-0.022-0.002c-0.018-0.008-0.033-0.008-0.053-0.01  L58.258,63.217z M55.816,64.627c-0.004,0.013-0.002,0.023-0.004,0.036c-0.002,0.009-0.01,0.015-0.01,0.024v0.039l-0.035-0.021  c-0.009-0.006-0.02-0.001-0.029-0.005c-0.008-0.004-0.013-0.013-0.021-0.016L55.816,64.627z M53.375,66.067  c-0.001,0.01-0.01,0.017-0.01,0.026v0.039l-0.035-0.021c-0.009-0.006-0.02-0.001-0.029-0.005c-0.006-0.003-0.01-0.011-0.018-0.014  l0.089-0.051C53.37,66.05,53.377,66.06,53.375,66.067z M50.95,67.461c-0.001,0.011-0.011,0.017-0.011,0.027v0.051l-0.034-0.021  c-0.009-0.006-0.021-0.001-0.031-0.005c-0.01-0.005-0.017-0.016-0.028-0.018l0.101-0.06C50.945,67.444,50.951,67.453,50.95,67.461z   M48.531,68.827c-0.005,0.014-0.004,0.025-0.006,0.04c-0.001,0.011-0.011,0.017-0.011,0.027v0.057l-0.048-0.029  c-0.009-0.005-0.02,0-0.03-0.004c-0.013-0.006-0.022-0.013-0.036-0.016L48.531,68.827z M46.095,70.233  c-0.006,0.015-0.007,0.027-0.009,0.043c-0.001,0.009-0.01,0.015-0.01,0.024v0.051l-0.034-0.021  c-0.009-0.006-0.021-0.001-0.031-0.005c-0.017-0.008-0.03-0.013-0.048-0.015L46.095,70.233z M43.649,71.681  c-0.001,0.01-0.011,0.017-0.011,0.026v0.049L43.6,71.733c-0.008-0.005-0.018,0-0.027-0.004c-0.013-0.005-0.023-0.012-0.037-0.014  l0.113-0.065C43.645,71.661,43.65,71.671,43.649,71.681z M41.232,73.046c-0.006,0.015-0.007,0.027-0.009,0.043  c-0.001,0.009-0.01,0.015-0.01,0.024v0.039l-0.034-0.021c-0.009-0.006-0.021-0.001-0.031-0.005  c-0.009-0.004-0.014-0.016-0.023-0.018L41.232,73.046z M62.976,60.488l0.125-0.072c-0.002,0.008,0.004,0.016,0.003,0.024  c-0.002,0.011-0.012,0.018-0.012,0.028v0.067l-0.053-0.03c-0.008-0.005-0.018,0-0.025-0.003C63,60.497,62.99,60.491,62.976,60.488z   M65.414,59.083l0.279-0.165c0,0.001,0,0.001,0,0.002c-0.008,0.017-0.012,0.03-0.014,0.048c-0.002,0.009-0.01,0.015-0.01,0.024  v0.217L65.477,59.1c-0.009-0.005-0.018,0-0.027-0.003C65.437,59.091,65.428,59.085,65.414,59.083z M63.242,59.872l-1.686,0.976  l-1.674-0.969l0.034-0.019c0.001-0.001,0.001-0.002,0.003-0.003s0.004-0.001,0.006-0.002l0.352-0.211l0,0l1.278-0.748l0.25,0.15  c0.001,0,0.001,0,0.003,0.001v0.001L63.242,59.872z M61.609,58.472l0.108-0.062c-0.003,0.009,0.004,0.018,0.003,0.027  c-0.002,0.011-0.012,0.018-0.012,0.028v0.057l-0.049-0.029c-0.01-0.005-0.02,0-0.029-0.004  C61.622,58.484,61.617,58.474,61.609,58.472z M60.174,58.832l-1.684-0.965l1.432-0.822c0.001,0,0.001-0.001,0.002-0.001  c0-0.001,0.002-0.001,0.002-0.001l0.247-0.148l0.235,0.146c0.002,0.001,0.004,0,0.005,0.001s0.001,0.002,0.002,0.003l1.442,0.822  L60.174,58.832z M59.42,59.273l-1.684,0.965l-1.672-0.964l1.432-0.823c0.002-0.001,0.002-0.002,0.002-0.003  c0.002-0.001,0.004,0,0.004-0.001l0.236-0.146l0.247,0.148c0.001,0,0.001,0,0.003,0.001v0.001L59.42,59.273z M56.994,60.68  l-1.684,0.965l-1.684-0.965l1.432-0.822c0.001,0,0.001-0.001,0.002-0.001c0-0.001,0.002-0.001,0.002-0.001l0.248-0.149l0.249,0.149  c0.001,0,0.001,0,0.003,0.001v0.001L56.994,60.68z M54.559,62.085l-1.686,0.966l-1.675-0.966l1.436-0.834c0.001,0,0.001,0,0.001,0  l0.24-0.142l0.25,0.142L54.559,62.085z M52.133,63.491l-1.685,0.966l-1.686-0.966l1.435-0.834c0,0,0,0,0,0  c0-0.001,0.001-0.001,0.002-0.001l0.249-0.149l0.249,0.149c0,0,0.001,0,0.002,0.001c0,0,0,0,0,0L52.133,63.491z M49.695,64.877  l-1.685,0.984l-1.674-0.983l1.433-0.813c0.001-0.001,0.001-0.002,0.002-0.003c0.001,0,0.003,0,0.005-0.001l0.236-0.146l0.247,0.148  c0.001,0.001,0.002,0,0.003,0.001c0,0,0,0.001,0.001,0.001L49.695,64.877z M47.269,66.283l-1.684,0.975L43.9,66.283l1.431-0.812  c0,0,0-0.001,0.001-0.001c0.001-0.001,0.002,0,0.003-0.001l0.249-0.149l0.249,0.149c0.001,0.001,0.002,0,0.003,0.001  c0,0,0,0.001,0.001,0.001L47.269,66.283z M44.831,67.689l-1.684,0.974l-1.673-0.974l1.432-0.812  c0.001-0.001,0.001-0.002,0.002-0.003c0.001,0,0.003,0,0.005-0.001l0.236-0.146l0.247,0.148c0.001,0.001,0.002,0,0.003,0.001  c0,0,0,0.001,0.001,0.001L44.831,67.689z M42.405,69.096l-1.684,0.975l-1.684-0.975l1.431-0.812c0,0,0-0.001,0.001-0.001  c0.001-0.001,0.002,0,0.003-0.001l0.249-0.149l0.249,0.149c0.001,0.001,0.002,0,0.003,0.001c0,0,0,0.001,0.001,0.001L42.405,69.096z   M39.971,70.5l-1.687,0.976L36.607,70.5l1.437-0.835l0.24-0.133l0.256,0.137h0L39.971,70.5z M37.545,71.906l-1.688,0.977  l-1.688-0.977l1.43-0.831h0l0.257-0.138l0.257,0.138h0L37.545,71.906z M37.416,72.442C37.416,72.443,37.416,72.443,37.416,72.442  c-0.007,0.019-0.012,0.031-0.014,0.05c-0.001,0.009-0.01,0.015-0.01,0.023v0.045l-0.048-0.029c-0.009-0.005-0.02,0-0.029-0.004  c-0.008-0.003-0.012-0.013-0.02-0.015L37.416,72.442z M34.979,73.841c-0.001,0.003,0,0.006-0.001,0.009  c-0.007,0.018-0.012,0.03-0.014,0.049c-0.001,0.009-0.01,0.015-0.01,0.023v0.039l-0.034-0.021c-0.009-0.006-0.021-0.001-0.03-0.005  c-0.016-0.007-0.028-0.013-0.045-0.016L34.979,73.841z M35.551,73.918l0.059-0.035c0,0,0-0.001,0-0.001l0.347-0.196c0,0,0,0,0,0  c0-0.001,0.001-0.001,0.002-0.001l1.28-0.749l0.25,0.15c0.001,0.001,0.002,0,0.003,0.001l1.444,0.834l-1.695,0.966L35.551,73.918z   M38.8,74.459c-0.004,0.012-0.001,0.022-0.002,0.034c-0.001,0.01-0.011,0.017-0.011,0.026v0.045l-0.048-0.029  c-0.009-0.005-0.02,0-0.029-0.004c-0.006-0.003-0.009-0.01-0.015-0.012L38.8,74.459z M36.995,75.903  c0.002-0.001,0.002-0.004,0.004-0.005c0.002-0.001,0.005-0.001,0.007-0.002l0.34-0.211l1.287-0.746l0.251,0.15  c0,0,0.001,0,0.002,0.001c0,0,0,0.001,0.001,0.001l1.435,0.824l-1.687,0.985l-1.675-0.979L36.995,75.903z M40.186,76.459  c-0.005,0.013-0.004,0.024-0.006,0.038c-0.001,0.01-0.011,0.017-0.011,0.026v0.045l-0.048-0.029c-0.009-0.005-0.02,0-0.029-0.004  c-0.006-0.003-0.01-0.01-0.016-0.012L40.186,76.459z M45.635,73.713l0.048-0.027c0,0,0-0.001,0.001-0.001  c0.001-0.001,0.002,0,0.003-0.001l0.352-0.211c0,0,0-0.001,0-0.001l1.282-0.728l0.255,0.136h0l1.43,0.831l-1.688,0.977  L45.635,73.713z M48.067,72.304l0.044-0.025c0,0,0-0.001,0-0.001l0.349-0.197c0,0,0-0.001,0-0.001s0,0,0.001,0l1.284-0.739  l0.25,0.142c0,0,0,0.001,0.001,0.001l1.433,0.823l-1.685,0.975L48.067,72.304z M50.508,70.906l0.034-0.019  c0.001-0.001,0.001-0.002,0.002-0.003c0.002-0.001,0.004-0.001,0.006-0.002l0.352-0.211c0,0,0-0.001,0.001-0.001l1.28-0.737  l0.25,0.142v0.001l1.434,0.823l-1.686,0.976L50.508,70.906z M52.938,69.497l0.033-0.018c0,0,0-0.001,0-0.002  c0.002,0,0.004,0,0.006-0.001l0.352-0.211c0,0,0-0.001,0.001-0.001l1.28-0.737l0.25,0.142v0.001l1.436,0.824l-1.687,0.984  L52.938,69.497z M55.355,68.105l0.059-0.035l0.352-0.211c0,0,0-0.001,0.001-0.001l1.28-0.737l0.248,0.141v0.001l1.438,0.845  l-1.688,0.967L55.355,68.105z M57.786,66.697l0.052-0.033c0.001,0,0.002,0,0.002,0l0.352-0.211v-0.001l1.282-0.728l0.247,0.132  l1.438,0.845l-1.688,0.967L57.786,66.697z M67.225,55.636c0.002-0.001,0.004,0,0.004-0.001l0.238-0.147l4.119,2.379l-3.643,2.091  l-1.683-0.97l0.052-0.035c0,0,0.001,0,0.002-0.001l0.694-0.382c0.023-0.013,0.03-0.038,0.046-0.057  c0.008-0.01,0.024-0.007,0.031-0.019c0.004-0.008,0-0.017,0.004-0.024c0.01-0.024,0.009-0.047,0.009-0.073  c0.001-0.026,0.002-0.049-0.008-0.073c-0.003-0.009,0.001-0.018-0.003-0.025c-0.01-0.018-0.029-0.021-0.043-0.035  c-0.013-0.013-0.016-0.031-0.032-0.041l-2.137-1.232l2.347-1.351C67.225,55.638,67.225,55.637,67.225,55.636z M64.787,54.231  c0-0.001,0.002-0.001,0.002-0.001l0.25-0.15l1.687,0.985l-4.124,2.383l-1.688-0.985l1.445-0.824  c0.001-0.001,0.001-0.002,0.002-0.003c0.002-0.001,0.003,0,0.004-0.001l0.334-0.207l0,0l2.086-1.195  C64.786,54.232,64.786,54.231,64.787,54.231z M62.6,52.684l1.688,0.977L62.6,54.637l-1.687-0.977L62.6,52.684z M60.172,54.081  l0.236,0.147c0.002,0.001,0.004,0,0.004,0.001c0.002,0.001,0.002,0.002,0.002,0.002l1.447,0.835l-1.688,0.977l-1.688-0.978  L60.172,54.081z M57.734,55.486l0.251,0.15c0.001,0,0.001,0,0.003,0.001v0.001l1.436,0.824l-1.687,0.984l-1.679-0.985L57.734,55.486  z M55.309,56.893l0.251,0.15c0.001,0,0.001,0,0.003,0.001v0.001l1.432,0.822l-1.684,0.965l-1.685-0.966L55.309,56.893z   M52.871,58.299l0.251,0.15c0.001,0,0.001,0,0.003,0.001v0.001l1.432,0.822l-1.684,0.965l-1.675-0.966L52.871,58.299z   M50.445,59.705l0.251,0.15c0,0,0.001,0,0.002,0.001c0,0,0,0.001,0.001,0.001l1.431,0.822l-1.683,0.965l-1.685-0.966L50.445,59.705z   M48.012,61.109l0.25,0.142l1.435,0.834l-1.686,0.966l-1.675-0.966L48.012,61.109z M45.583,62.506l0.25,0.15  c0,0,0.001,0,0.002,0.001c0,0,0,0,0,0l1.435,0.834l-1.686,0.966l-1.686-0.967L45.583,62.506z M43.144,63.912l0.251,0.15  c0.001,0.001,0.002,0,0.003,0.001c0,0,0,0.001,0.001,0.001l1.432,0.812l-1.685,0.984l-1.677-0.985L43.144,63.912z M40.719,65.318  l0.251,0.15c0.001,0.001,0.002,0,0.003,0.001c0,0,0,0.001,0.001,0.001l1.431,0.812l-1.684,0.975l-1.685-0.976L40.719,65.318z   M38.281,66.725l0.251,0.15c0.001,0.001,0.002,0,0.003,0.001c0,0,0,0.001,0.001,0.001l1.431,0.812l-1.684,0.974l-1.676-0.975  L38.281,66.725z M35.855,68.131l0.251,0.15c0.001,0.001,0.002,0,0.003,0.001c0,0,0,0.001,0.001,0.001l1.431,0.812l-1.684,0.975  l-1.685-0.976L35.855,68.131z M33.423,69.533l0.254,0.136h0l1.43,0.831l-1.687,0.976l-1.676-0.975L33.423,69.533z M30.998,70.939  l0.254,0.136h0l1.43,0.831l-1.688,0.977l-1.685-0.976L30.998,70.939z M28.558,72.336l0.25,0.142c0,0,0,0.001,0.001,0.001  l1.435,0.824l-1.686,0.984l-1.677-0.985L28.558,72.336z M23.853,75.565l-0.449-0.26l0.442-0.253v0.463  c0,0.01,0.009,0.016,0.011,0.025C23.857,75.55,23.851,75.558,23.853,75.565z M25.931,76.365l-1.686-0.966v-0.346l1.686,0.976V76.365  z M24.446,74.708l1.686-0.966l0.25,0.142c0,0,0,0.001,0.001,0.001l1.434,0.823l-1.686,0.976L24.446,74.708z M26.291,76.976  l-0.125-0.073c0.021-0.003,0.041-0.005,0.061-0.015l0.057-0.03v0.064c0,0.01,0.009,0.016,0.01,0.025  C26.294,76.957,26.288,76.966,26.291,76.976z M28.357,77.771l-1.674-0.965v-0.283v-0.062l1.674,0.975V77.771z M26.883,76.114  l1.434-0.823c0,0,0-0.001,0-0.001s0,0,0.001,0l0.241-0.142l0.249,0.142c0,0,0,0.001,0.001,0.001l1.434,0.823l-1.685,0.975  L26.883,76.114z M28.716,78.378l-0.122-0.07c0.021-0.004,0.042-0.006,0.062-0.017l0.053-0.03v0.067c0,0.01,0.009,0.016,0.011,0.025  C28.72,78.361,28.714,78.37,28.716,78.378z M30.794,79.178l-1.686-0.966v-0.294v-0.052l1.686,0.976V79.178z M29.309,77.521  l1.434-0.823c0,0,0-0.001,0.001-0.001l0.35-0.198c0,0,0,0,0,0c0-0.001,0.001-0.001,0.002-0.001l1.28-0.749l0.25,0.15  c0.001,0.001,0.002,0,0.003,0.001c0,0,0,0.001,0.001,0.001l1.432,0.812l-3.068,1.782L29.309,77.521z M31.153,79.787l-0.125-0.072  c0.022-0.004,0.044-0.006,0.065-0.018l0.053-0.03v0.067c0,0.01,0.009,0.016,0.01,0.025C31.158,79.769,31.151,79.778,31.153,79.787z   M33.22,80.584l-1.674-0.965v-0.295v-0.051l1.674,0.975V80.584z M31.746,78.927l2.817-1.62c0,0,0-0.001,0.001-0.001  c0.001-0.001,0.002-0.001,0.002-0.001l0.352-0.211c0,0,0-0.001,0.001-0.001l1.287-0.746l0.238,0.147  c0.001,0.001,0.002,0,0.004,0.001c0.001,0.001,0.001,0.002,0.002,0.003l1.434,0.823l-4.462,2.58L31.746,78.927z M35.318,79.266  c-0.004,0.012,0,0.021-0.002,0.033c-0.001,0.01-0.01,0.016-0.01,0.025v0.057l-0.048-0.029c-0.009-0.005-0.02,0-0.03-0.004  c-0.008-0.004-0.013-0.015-0.022-0.017L35.318,79.266z M33.458,81.12c0.021-0.005,0.042-0.006,0.061-0.017l0.053-0.03v0.056  c0,0.01,0.009,0.016,0.01,0.025c0.002,0.016,0.003,0.027,0.009,0.042L33.458,81.12z M35.658,81.989l-1.686-0.976V80.73v-0.052  l1.686,0.976V81.989z M34.17,80.331l0.983-0.575l0.25,0.15c0,0,0.001,0,0.002,0.001c0,0,0,0.001,0.001,0.001l1.435,0.824  l-0.984,0.575L34.17,80.331z M35.892,82.527c0.022-0.004,0.044-0.006,0.064-0.018l0.053-0.03v0.056c0,0.01,0.009,0.016,0.01,0.025  c0.002,0.018,0.006,0.031,0.013,0.048L35.892,82.527z M38.083,83.385L36.41,82.42v-0.283v-0.06l1.674,0.983V83.385z M38.285,82.714  l-1.679-0.986l0.732-0.425h0l0.351-0.198c0.001-0.001,0.001-0.001,0.002-0.001l2.086-1.195c0.001-0.001,0.001-0.002,0.002-0.003  c0.001-0.001,0.003,0,0.004-0.001l0.339-0.211l0.945-0.535l0.239,0.148c0.001,0.001,0.002,0,0.004,0.001  c0.001,0.001,0.001,0.002,0.002,0.003l1.434,0.823L38.285,82.714z M42.947,80.531v0.283l-4.463,2.57v-0.324l4.463-2.581V80.531z   M43.327,80.999c0.006-0.015,0.008-0.027,0.01-0.044c0.001-0.01,0.011-0.016,0.011-0.025v-0.056l0.053,0.03  c0.02,0.011,0.041,0.013,0.062,0.017L43.327,80.999z M41.814,78.726l0.39-0.225c0.001-0.001,0.002,0,0.003-0.001l0.352-0.211  l0.936-0.536l0.238,0.147c0.001,0.001,0.003,0,0.004,0.001c0.001,0.001,0.001,0.002,0.002,0.003l1.442,0.822l-1.683,0.965  L41.814,78.726z M45.384,79.137v0.271l-1.686,0.976v-0.346l1.686-0.966V79.137z M45.765,79.592c0.005-0.015,0.007-0.027,0.009-0.043  c0.001-0.01,0.01-0.016,0.01-0.025v-0.053l0.057,0.03c0.018,0.01,0.037,0.01,0.056,0.014L45.765,79.592z M44.243,77.32l0.397-0.225  c0.001-0.001,0.001-0.002,0.002-0.003c0.001,0,0.003,0,0.005-0.001l0.339-0.211l0.945-0.535l0.239,0.148  c0.001,0.001,0.002,0,0.004,0.001c0.001,0.001,0.001,0.002,0.002,0.003l1.433,0.823l-1.673,0.964L44.243,77.32z M47.81,77.73v0.271  l-1.674,0.975v-0.346l1.674-0.965V77.73z M48.183,78.196c0.008-0.019,0.015-0.034,0.018-0.055c0.001-0.009,0.01-0.015,0.01-0.024  v-0.053l0.057,0.03c0.021,0.011,0.042,0.013,0.063,0.016L48.183,78.196z M46.674,75.915l0.393-0.227  c0.001-0.001,0.002,0,0.003-0.001l0.352-0.211l2.083-1.193c0,0,0-0.001,0.001-0.001l0.336-0.186c0,0,0-0.001,0.001-0.001  c0.001-0.001,0.002,0,0.003-0.001l2.08-1.216l0.351-0.187c0.001-0.001,0.001-0.002,0.003-0.003c0-0.001,0.002,0,0.003-0.001  l2.085-1.207h0.002l0.34-0.199v-0.001l2.083-1.205h0.001l0.352-0.199v-0.001c0,0,0,0,0.001,0l2.085-1.207h0.002l0.34-0.199v-0.001  l2.083-1.205h0.001l0.352-0.199v-0.001c0.002-0.001,0.002-0.001,0.002-0.001l0.929-0.549l0.25,0.15c0.001,0.001,0.002,0,0.003,0.001  c0,0,0,0.001,0.001,0.001l1.444,0.823l-16.274,9.412L46.674,75.915z M64.838,67.898v0.283l-16.276,9.391v-0.324l16.276-9.413V67.898  z M65.222,68.361c0.005-0.014,0.004-0.025,0.006-0.039c0.001-0.01,0.011-0.016,0.011-0.025v-0.039l0.033,0.021  c0.02,0.012,0.041,0.013,0.061,0.018L65.222,68.361z M63.689,66.093l0.406-0.236l0.336-0.186c0,0,0-0.001,0.001-0.002  s0.003,0,0.005-0.001l0.939-0.56l0.249,0.149c0.001,0,0.001,0,0.002,0.001c0.001,0,0.001,0,0.001,0l1.436,0.835l-1.688,0.977  L63.689,66.093z M67.264,66.492v0.283l-1.686,0.985v-0.345l1.686-0.976V66.492z M67.639,66.966c0.008-0.018,0.012-0.031,0.015-0.051  c0.001-0.009,0.011-0.015,0.011-0.024v-0.045l0.048,0.029c0.019,0.011,0.038,0.011,0.058,0.016L67.639,66.966z M66.125,64.686  l0.389-0.231c0,0,0,0,0.001,0l0.352-0.188c0.001,0,0.001-0.002,0.001-0.002c0.002-0.001,0.004,0,0.004-0.001l0.947-0.543  l0.254,0.136l0,0l1.43,0.831l-1.688,0.977L66.125,64.686z M69.701,65.086v0.295l-1.686,0.976V66.01l1.686-0.976V65.086z   M70.094,65.549c0.002-0.009-0.004-0.019-0.003-0.027c0.001-0.01,0.011-0.016,0.011-0.025v-0.051l0.033,0.021  c0.021,0.013,0.045,0.015,0.067,0.02L70.094,65.549z M68.565,63.282l0.392-0.227h0.002l0.338-0.198l0,0l0.947-0.543l0.254,0.136l0,0  l1.43,0.831l-1.687,0.976L68.565,63.282z M72.127,63.68v0.295l-1.686,0.976v-0.347l1.686-0.976V63.68z M72.511,64.153  c0.005-0.013,0.004-0.024,0.006-0.038c0.001-0.01,0.011-0.016,0.011-0.025v-0.051l0.033,0.021c0.023,0.015,0.049,0.017,0.074,0.021  L72.511,64.153z M70.992,61.876l3.52-2.019c0.001,0,0.001-0.001,0.002-0.001c0-0.001,0.002-0.001,0.002-0.001l0.25-0.15l1.674,0.974  l-3.771,2.173L70.992,61.876z M76.639,61.361l-3.771,2.183v-0.347l3.771-2.172V61.361z M77.01,61.557  c0.01-0.02,0.016-0.034,0.019-0.055c0.001-0.01,0.011-0.016,0.011-0.025v-0.454l0.451,0.257L77.01,61.557z"></path><path d="M74.152,75.087c-0.01-0.016-0.029-0.02-0.042-0.031c-0.013-0.013-0.015-0.032-0.031-0.041l-6.949-4.008  c-0.009-0.005-0.018,0-0.026-0.004c-0.017-0.007-0.031-0.011-0.049-0.014c-0.01-0.001-0.016-0.01-0.025-0.01  s-0.015,0.009-0.023,0.01c-0.02,0.003-0.033,0.007-0.051,0.014c-0.008,0.004-0.018-0.001-0.025,0.004l-11.238,6.492  c-0.016,0.009-0.02,0.028-0.031,0.041c-0.013,0.012-0.032,0.015-0.041,0.031c-0.006,0.009,0,0.019-0.004,0.027  c-0.011,0.024-0.01,0.046-0.01,0.073c0,0.026-0.001,0.049,0.01,0.073c0.003,0.009-0.002,0.018,0.003,0.026  c0.007,0.011,0.022,0.008,0.03,0.018c0.016,0.019,0.021,0.043,0.043,0.056l0.281,0.164l0,0l6.656,3.844  c0.031,0.019,0.066,0.027,0.1,0.027c0.035,0,0.068-0.009,0.101-0.027l10.968-6.328c0.001,0,0.001,0,0.002,0l0.281-0.164  c0.021-0.013,0.027-0.037,0.042-0.056c0.009-0.01,0.024-0.007,0.03-0.018c0.005-0.009,0-0.018,0.004-0.026  c0.01-0.024,0.01-0.047,0.01-0.073c0-0.027,0-0.049-0.01-0.074C74.152,75.104,74.156,75.096,74.152,75.087z M62.729,81.449  l-6.256-3.613l10.557-6.098l6.269,3.613L62.729,81.449z"></path><path d="M95.125,65.516c-0.011-0.052-0.029-0.103-0.055-0.144c-0.021-0.034-0.051-0.067-0.085-0.096  c-0.007-0.008-0.015-0.016-0.022-0.022c-0.029-0.035-0.066-0.066-0.104-0.088L63.134,46.865L54.926,6.7  c-0.006-0.027-0.015-0.055-0.027-0.082c-0.008-0.028-0.019-0.059-0.036-0.09c-0.027-0.05-0.077-0.104-0.13-0.143  c-0.021-0.021-0.051-0.046-0.092-0.071C54.635,6.31,54.627,6.305,54.62,6.3c-0.038-0.026-0.079-0.046-0.124-0.059l-0.678-0.187  c-0.034-0.01-0.1-0.019-0.136-0.019c-0.069,0-0.128,0.014-0.17,0.026c-0.056,0.009-0.113,0.027-0.155,0.052L5.079,33.991  c-0.046,0.026-0.1,0.077-0.136,0.124c-0.027,0.029-0.054,0.063-0.079,0.105c-0.013,0.02-0.026,0.041-0.037,0.062H4.826  c-0.011,0.022-0.021,0.047-0.028,0.071c-0.015,0.055-0.018,0.104-0.015,0.146c-0.004,0.039-0.004,0.086,0.007,0.138l8.272,40.413  c0.01,0.048,0.034,0.103,0.062,0.148c0.019,0.037,0.04,0.068,0.065,0.1c0.046,0.057,0.098,0.102,0.158,0.138  c0.046,0.034,0.101,0.062,0.151,0.074l0.219,0.062v1.14c0,0.046,0.01,0.096,0.026,0.143c0.018,0.064,0.046,0.114,0.061,0.141  c0.021,0.037,0.05,0.091,0.104,0.144c0.031,0.036,0.068,0.068,0.106,0.091l5.721,3.307l26.238,15.164  c0.09,0.053,0.194,0.081,0.3,0.081s0.21-0.028,0.302-0.082L94.857,67.82c0.045-0.026,0.088-0.066,0.123-0.11  c0.045-0.047,0.068-0.087,0.081-0.11c0.02-0.033,0.05-0.084,0.069-0.155c0.017-0.047,0.026-0.098,0.026-0.144v-1.617  c0-0.046-0.01-0.096-0.026-0.142C95.129,65.533,95.127,65.524,95.125,65.516z M53.578,6.456c0.002,0,0.002,0,0.004,0  c0.006,0,0.012,0,0.018-0.002c0.027-0.009,0.055-0.018,0.083-0.018c0.01,0,0.021,0.001,0.03,0.004  C53.676,6.43,53.637,6.442,53.6,6.454c-0.014,0.005-0.029-0.001-0.041,0.006C53.564,6.456,53.571,6.456,53.578,6.456z M53.687,6.848  l0.139,0.038L6.028,34.474L5.9,34.44L53.687,6.848z M13.822,74.771L5.637,34.785l0.249,0.064l8.171,39.986L13.822,74.771z   M6.282,34.788L54.198,7.132l8.177,40.018L14.459,74.806L6.282,34.788z M46.076,94.833l-25.938-14.99l-5.619-3.247v-1.132  l31.557,18.214V94.833z M14.718,75.117L62.6,47.48l31.559,18.203L46.276,93.332L14.718,75.117z M94.357,67.186L46.476,94.833v-1.155  L94.357,66.03V67.186z"></path></svg>